<svg width="512" height="512" xmlns="http://www.w3.org/2000/svg">
  <!-- Outer gold circle -->
  <circle cx="256" cy="256" r="256" fill="#C9A23E"/>

  <!-- Inner navy circle -->
  <circle cx="256" cy="256" r="240" fill="#14264E"/>

  <!-- Gold ring -->
  <circle cx="256" cy="256" r="200" fill="none" stroke="#C9A23E" stroke-width="8"/>

  <!-- Compass star shape -->
  <g fill="#C9A23E">
    <path d="M 256 80 L 280 160 L 360 120 L 310 180 L 340 260 L 256 210 L 172 260 L 202 180 L 152 120 L 232 160 Z"/>
  </g>

  <!-- Water element -->
  <g fill="#4E7FBE">
    <path d="M 180 300 Q 220 280 256 300 Q 292 320 332 300 L 332 380 L 180 380 Z"/>
  </g>

  <!-- Center circle background -->
  <circle cx="256" cy="256" r="60" fill="#14264E"/>

  <!-- Anchor symbol -->
  <g fill="#C9A23E" font-size="80" text-anchor="middle" dominant-baseline="middle">
    <text x="256" y="256">⚓</text>
  </g>

  <!-- Decorative circles around edge -->
  <circle cx="80" cy="80" r="20" fill="none" stroke="#C9A23E" stroke-width="2" opacity="0.3"/>
  <circle cx="432" cy="80" r="20" fill="none" stroke="#C9A23E" stroke-width="2" opacity="0.3"/>
  <circle cx="80" cy="432" r="20" fill="none" stroke="#C9A23E" stroke-width="2" opacity="0.3"/>
  <circle cx="432" cy="432" r="20" fill="none" stroke="#C9A23E" stroke-width="2" opacity="0.3"/>
</svg>
